<svg xmlns="http://www.w3.org/2000/svg" viewBox="0 0 48 48"><rect width="48" height="48" rx="12" fill="#fff"/><path d="M24 8a12 12 0 0 0-12 12c0 8.6 9.6 18.2 11 19.6a1.4 1.4 0 0 0 2 0C26.4 38.2 36 28.6 36 20A12 12 0 0 0 24 8z" fill="#34A853"/><path d="M24 8a12 12 0 0 0-10.4 6l6.6 5.4A4.6 4.6 0 0 1 28 16.9l6.4-4.7A12 12 0 0 0 24 8z" fill="#EA4335"/><path d="M34.4 12.2 28 16.9a4.6 4.6 0 0 1-2 7.2l-1 15.5a1.4 1.4 0 0 0 0 0C26.4 38.2 36 28.6 36 20a12 12 0 0 0-1.6-7.8z" fill="#4285F4"/><circle cx="24" cy="20" r="4.6" fill="#FBBC04"/></svg>
